<svg width="510" height="493" viewBox="0 0 510 493" fill="none" xmlns="http://www.w3.org/2000/svg">
<path d="M316.351 430.329C290.876 441.065 262.881 447 233.5 447C115.587 447 20 351.413 20 233.5C20 115.587 115.587 20 233.5 20C351.413 20 447 115.587 447 233.5C447 243.32 445.393 252.541 442.534 261.269" stroke="white" stroke-width="40"/>
<circle cx="414" cy="409" r="84" fill="white"/>
<path d="M399.735 277.005C406.436 266.668 421.564 266.668 428.265 277.005L480.124 357.003C487.456 368.313 479.338 383.25 465.859 383.25H362.141C348.662 383.25 340.544 368.313 347.876 357.003L399.735 277.005Z" fill="white"/>
<circle cx="233" cy="233" r="32" fill="white"/>
<path d="M130.144 323C108.888 298.92 96 267.349 96 232.784C96 157.24 157.561 96 233.5 96C309.439 96 371 157.24 371 232.784C371 267.349 358.112 298.92 336.856 323" stroke="white" stroke-width="21"/>
<path d="M357.197 111.541L264.58 228.303L238.288 201.384L357.197 111.541Z" fill="white"/>
</svg>
